<?xml version="1.0" encoding="utf-8"?>
<!-- Generator: Adobe Illustrator 15.1.0, SVG Export Plug-In . SVG Version: 6.00 Build 0)  -->
<!DOCTYPE svg PUBLIC "-//W3C//DTD SVG 1.0//EN" "http://www.w3.org/TR/2001/REC-SVG-20010904/DTD/svg10.dtd">
<svg version="1.0" id="Layer_1" xmlns="http://www.w3.org/2000/svg" xmlns:xlink="http://www.w3.org/1999/xlink" x="0px" y="0px"
	 width="30px" height="30px" viewBox="0 0 30 30" enable-background="new 0 0 30 30" xml:space="preserve">
<g>
	<g>
		<path d="M28,2v26H2V2H28 M30,0H0v30h30V0L30,0z"/>
	</g>
	<circle cx="6.25" cy="22.875" r="2"/>
	<circle cx="23.25" cy="7.875" r="2"/>
	<path d="M6.249,23.875c-0.132,0-0.267-0.026-0.396-0.082c-0.507-0.219-0.74-0.808-0.521-1.314l4.938-11.438
		c0.146-0.339,0.469-0.57,0.837-0.6c0.376-0.037,0.724,0.146,0.923,0.458l5.507,8.6l4.783-12.176
		c0.202-0.515,0.784-0.766,1.296-0.565c0.515,0.202,0.768,0.782,0.565,1.296l-5.5,14c-0.138,0.351-0.459,0.594-0.833,0.63
		c-0.384,0.038-0.737-0.14-0.939-0.456l-5.549-8.665l-4.191,9.71C7.005,23.649,6.637,23.875,6.249,23.875z"/>
</g>
</svg>
