<?xml version="1.0" encoding="utf-8"?>
<!-- Generator: Adobe Illustrator 15.1.0, SVG Export Plug-In . SVG Version: 6.00 Build 0)  -->
<!DOCTYPE svg PUBLIC "-//W3C//DTD SVG 1.1//EN" "http://www.w3.org/Graphics/SVG/1.1/DTD/svg11.dtd">
<svg version="1.1" id="Layer_1" xmlns="http://www.w3.org/2000/svg" xmlns:xlink="http://www.w3.org/1999/xlink" x="0px" y="0px"
	 width="30px" height="30px" viewBox="0 0 30 30" enable-background="new 0 0 30 30" xml:space="preserve">
<g>
	<g>
		<rect x="1" y="1" fill="#FFFFFF" width="28" height="28"/>
		<path fill="#00ADEE" d="M28,2v26H2V2H28 M30,0H0v30h30V0L30,0z"/>
	</g>
	<g>
		<g>
			<circle fill="#29AAE1" cx="26.402" cy="2.805" r="0.447"/>
			<circle fill="#29AAE1" cx="22.528" cy="2.805" r="0.447"/>
			<circle fill="#29AAE1" cx="18.653" cy="2.805" r="0.447"/>
			<circle fill="#29AAE1" cx="14.779" cy="2.805" r="0.447"/>
			<circle fill="#29AAE1" cx="10.904" cy="2.805" r="0.447"/>
			<circle fill="#29AAE1" cx="7.03" cy="2.805" r="0.447"/>
			<circle fill="#29AAE1" cx="3.156" cy="2.805" r="0.447"/>
		</g>
		<g>
			<circle fill="#29AAE1" cx="26.402" cy="6.68" r="0.447"/>
			<circle fill="#29AAE1" cx="22.528" cy="6.68" r="0.447"/>
			<circle fill="#29AAE1" cx="18.653" cy="6.68" r="0.447"/>
			<circle fill="#29AAE1" cx="14.779" cy="6.68" r="0.447"/>
			<circle fill="#29AAE1" cx="10.904" cy="6.68" r="0.447"/>
			<circle fill="#29AAE1" cx="7.03" cy="6.68" r="0.447"/>
			<circle fill="#29AAE1" cx="3.156" cy="6.68" r="0.447"/>
		</g>
		<g>
			<circle fill="#29AAE1" cx="26.402" cy="10.554" r="0.447"/>
			<circle fill="#29AAE1" cx="22.528" cy="10.554" r="0.447"/>
			<circle fill="#29AAE1" cx="18.653" cy="10.554" r="0.447"/>
			<circle fill="#29AAE1" cx="14.779" cy="10.554" r="0.447"/>
			<circle fill="#29AAE1" cx="10.904" cy="10.554" r="0.447"/>
			<circle fill="#29AAE1" cx="7.03" cy="10.554" r="0.447"/>
			<circle fill="#29AAE1" cx="3.156" cy="10.554" r="0.447"/>
		</g>
		<g>
			<circle fill="#29AAE1" cx="26.402" cy="15.024" r="0.447"/>
			<circle fill="#29AAE1" cx="22.528" cy="15.024" r="0.447"/>
			<circle fill="#29AAE1" cx="18.653" cy="15.024" r="0.447"/>
			<circle fill="#29AAE1" cx="14.779" cy="15.024" r="0.447"/>
			<circle fill="#29AAE1" cx="10.904" cy="15.024" r="0.447"/>
			<circle fill="#29AAE1" cx="7.03" cy="15.024" r="0.447"/>
			<circle fill="#29AAE1" cx="3.156" cy="15.024" r="0.447"/>
		</g>
		<g>
			<circle fill="#29AAE1" cx="26.402" cy="18.898" r="0.447"/>
			<circle fill="#29AAE1" cx="22.528" cy="18.898" r="0.447"/>
			<circle fill="#29AAE1" cx="18.653" cy="18.898" r="0.447"/>
			<circle fill="#29AAE1" cx="14.779" cy="18.898" r="0.447"/>
			<circle fill="#29AAE1" cx="10.904" cy="18.898" r="0.447"/>
			<circle fill="#29AAE1" cx="7.03" cy="18.898" r="0.447"/>
			<circle fill="#29AAE1" cx="3.156" cy="18.898" r="0.447"/>
		</g>
		<g>
			<circle fill="#29AAE1" cx="26.402" cy="22.773" r="0.447"/>
			<circle fill="#29AAE1" cx="22.528" cy="22.773" r="0.447"/>
			<circle fill="#29AAE1" cx="18.653" cy="22.773" r="0.447"/>
			<circle fill="#29AAE1" cx="14.779" cy="22.773" r="0.447"/>
			<circle fill="#29AAE1" cx="10.904" cy="22.773" r="0.447"/>
			<circle fill="#29AAE1" cx="7.03" cy="22.773" r="0.447"/>
			<circle fill="#29AAE1" cx="3.156" cy="22.773" r="0.447"/>
		</g>
		<g>
			<circle fill="#29AAE1" cx="26.402" cy="22.773" r="0.447"/>
			<circle fill="#29AAE1" cx="22.528" cy="22.773" r="0.447"/>
			<circle fill="#29AAE1" cx="18.653" cy="22.773" r="0.447"/>
			<circle fill="#29AAE1" cx="14.779" cy="22.773" r="0.447"/>
			<circle fill="#29AAE1" cx="10.904" cy="22.773" r="0.447"/>
			<circle fill="#29AAE1" cx="7.03" cy="22.773" r="0.447"/>
			<circle fill="#29AAE1" cx="3.156" cy="22.773" r="0.447"/>
		</g>
		<g>
			<circle fill="#29AAE1" cx="26.402" cy="26.647" r="0.447"/>
			<circle fill="#29AAE1" cx="22.528" cy="26.647" r="0.447"/>
			<circle fill="#29AAE1" cx="18.653" cy="26.647" r="0.447"/>
			<circle fill="#29AAE1" cx="14.779" cy="26.647" r="0.447"/>
			<circle fill="#29AAE1" cx="10.904" cy="26.647" r="0.447"/>
			<circle fill="#29AAE1" cx="7.03" cy="26.647" r="0.447"/>
			<circle fill="#29AAE1" cx="3.156" cy="26.647" r="0.447"/>
		</g>
	</g>
	<g>
		<path fill="#00ADEE" d="M9.199,14.713c0-3.997,2.965-6.697,6.962-6.697c2.779,0,4.474,1.218,5.24,2.355l-2.646,2.462
			c-0.503-0.741-1.323-1.217-2.409-1.217c-1.693,0-2.991,1.164-2.991,3.097c0,1.932,1.298,3.124,2.991,3.124
			c1.086,0,1.906-0.529,2.409-1.245l2.646,2.488c-0.767,1.112-2.461,2.356-5.24,2.356C12.164,21.437,9.199,18.71,9.199,14.713z"/>
	</g>
</g>
</svg>
