<?xml version="1.0" encoding="utf-8"?>
<!-- Generator: Adobe Illustrator 15.1.0, SVG Export Plug-In . SVG Version: 6.00 Build 0)  -->
<!DOCTYPE svg PUBLIC "-//W3C//DTD SVG 1.1//EN" "http://www.w3.org/Graphics/SVG/1.1/DTD/svg11.dtd">
<svg version="1.1" id="Layer_1" xmlns="http://www.w3.org/2000/svg" xmlns:xlink="http://www.w3.org/1999/xlink" x="0px" y="0px"
	 width="80px" height="80px" viewBox="0 0 80 80" enable-background="new 0 0 80 80" xml:space="preserve">
<g>
</g>
<g>
	<g>
		<path fill="#8BD6F7" d="M40,78.918C18.541,78.918,1.082,61.459,1.082,40S18.541,1.083,40,1.083S78.918,18.541,78.918,40
			S61.459,78.918,40,78.918z"/>
		<path fill="#444445" d="M40,2.083c20.908,0,37.918,17.009,37.918,37.917c0,20.908-17.01,37.918-37.918,37.918
			S2.082,60.908,2.082,40C2.082,19.092,19.092,2.083,40,2.083 M40,0.083C17.954,0.083,0.082,17.954,0.082,40
			S17.954,79.918,40,79.918S79.918,62.046,79.918,40S62.046,0.083,40,0.083L40,0.083z"/>
	</g>
	<g>
		<defs>
			<circle id="SVGID_1_" cx="40" cy="40" r="39.918"/>
		</defs>
		<clipPath id="SVGID_2_">
			<use xlink:href="#SVGID_1_"  overflow="visible"/>
		</clipPath>
		<g clip-path="url(#SVGID_2_)">
			<path fill="#D3D2D3" d="M-11.38,82c-1.65,0-2.209-1.094-1.241-2.431l33.86-46.805c0.968-1.337,2.55-1.337,3.518,0l33.864,46.805
				C59.589,80.906,59.03,82,57.38,82H-11.38z"/>
			<g>
				<defs>
					<polygon id="SVGID_3_" points="-14.38,82 22.998,30.333 60.38,82 					"/>
				</defs>
				<clipPath id="SVGID_4_">
					<use xlink:href="#SVGID_3_"  overflow="visible"/>
				</clipPath>
				<path clip-path="url(#SVGID_4_)" fill="#BFBFC0" d="M36.739,47.664c-3.422-3.422-12.085-15.327-12.085-15.327
					c-0.425-0.609-0.991-0.9-1.552-0.88c-0.561-0.02-1.126,0.271-1.551,0.88c0,0-8.024,11.267-12.086,15.327
					c-1.091,1.091,1.212,2.812,2.706,2.812c0.873,0,1.641-0.434,2.137-1.098c0.495,0.664,1.264,1.103,2.137,1.103
					c0.872,0,1.641-0.435,2.136-1.101c0.495,0.666,1.263,1.102,2.137,1.102c0.873,0,2.139-0.436,2.634-1.1
					c0.495,0.664,1.264,1.1,2.137,1.1c0.874,0,1.642-0.436,2.137-1.102c0.495,0.666,1.263,1.101,2.136,1.101
					s1.642-0.438,2.137-1.103c0.495,0.664,1.264,1.098,2.137,1.098C35.528,50.477,37.831,48.755,36.739,47.664z"/>
			</g>
			<path fill="#FFFFFF" d="M36.739,46.922C33.317,43.5,24.654,31.595,24.654,31.595c-0.425-0.609-0.991-0.9-1.552-0.88
				c-0.561-0.02-1.126,0.271-1.551,0.88c0,0-8.024,11.266-12.086,15.327c-1.091,1.092,1.212,2.812,2.706,2.812
				c0.873,0,1.641-0.433,2.137-1.098c0.495,0.665,1.264,1.104,2.137,1.104c0.872,0,1.641-0.436,2.136-1.101
				c0.495,0.665,1.263,1.101,2.137,1.101c0.873,0,2.139-0.435,2.634-1.1c0.495,0.665,1.264,1.1,2.137,1.1
				c0.874,0,1.642-0.436,2.137-1.101c0.495,0.665,1.263,1.101,2.136,1.101s1.642-0.438,2.137-1.104
				c0.495,0.665,1.264,1.098,2.137,1.098C35.528,49.734,37.831,48.014,36.739,46.922z"/>
		</g>
		<g clip-path="url(#SVGID_2_)">
			<path fill="#E8E7E7" d="M2.62,82c-1.65,0-2.209-1.094-1.241-2.431l46.984-64.946c0.968-1.337,2.55-1.337,3.518,0l46.99,64.946
				C99.839,80.906,99.28,82,97.63,82H2.62z"/>
			<g>
				<defs>
					<polygon id="SVGID_5_" points="-0.38,82 50.122,12.192 100.63,82 					"/>
				</defs>
				<clipPath id="SVGID_6_">
					<use xlink:href="#SVGID_5_"  overflow="visible"/>
				</clipPath>
				<path clip-path="url(#SVGID_6_)" fill="#D2D2D3" d="M68.688,35.608C64.065,30.984,52.36,14.899,52.36,14.899
					c-0.574-0.822-1.339-1.216-2.097-1.189c-0.757-0.026-1.521,0.367-2.096,1.189c0,0-10.842,15.223-16.329,20.709
					c-1.474,1.474,1.637,3.8,3.656,3.8c1.179,0,2.217-0.586,2.887-1.483c0.669,0.897,1.707,1.49,2.887,1.49
					c1.179,0,2.217-0.587,2.886-1.486c0.669,0.899,1.707,1.488,2.887,1.488s2.891-0.589,3.56-1.486
					c0.668,0.897,1.706,1.486,2.887,1.486s2.218-0.589,2.887-1.488c0.669,0.899,1.706,1.486,2.885,1.486
					c1.181,0,2.219-0.592,2.889-1.49c0.668,0.897,1.706,1.483,2.887,1.483C67.052,39.408,70.164,37.082,68.688,35.608z"/>
			</g>
			<path fill="#FFFFFF" d="M68.688,34.605C64.065,29.982,52.36,13.897,52.36,13.897c-0.574-0.823-1.339-1.216-2.097-1.19
				c-0.757-0.026-1.521,0.367-2.096,1.19c0,0-10.842,15.222-16.329,20.708c-1.474,1.475,1.637,3.8,3.656,3.8
				c1.179,0,2.217-0.584,2.887-1.483c0.669,0.898,1.707,1.49,2.887,1.49c1.179,0,2.217-0.588,2.886-1.487
				c0.669,0.898,1.707,1.487,2.887,1.487s2.891-0.586,3.56-1.485c0.668,0.898,1.706,1.485,2.887,1.485s2.218-0.588,2.887-1.487
				c0.669,0.898,1.706,1.487,2.885,1.487c1.181,0,2.219-0.592,2.889-1.49c0.668,0.898,1.706,1.483,2.887,1.483
				C67.052,38.405,70.164,36.08,68.688,34.605z"/>
		</g>
	</g>
	<path fill="#444445" d="M40,2.083c20.908,0,37.918,17.009,37.918,37.917c0,20.908-17.01,37.918-37.918,37.918
		S2.082,60.908,2.082,40C2.082,19.092,19.092,2.083,40,2.083 M40,0.083C17.954,0.083,0.082,17.954,0.082,40S17.954,79.918,40,79.918
		S79.918,62.046,79.918,40S62.046,0.083,40,0.083L40,0.083z"/>
</g>
</svg>
