<?xml version="1.0" encoding="utf-8"?>
<!-- Generator: Adobe Illustrator 15.1.0, SVG Export Plug-In . SVG Version: 6.00 Build 0)  -->
<!DOCTYPE svg PUBLIC "-//W3C//DTD SVG 1.0//EN" "http://www.w3.org/TR/2001/REC-SVG-20010904/DTD/svg10.dtd">
<svg version="1.0" id="Layer_1" xmlns="http://www.w3.org/2000/svg" xmlns:xlink="http://www.w3.org/1999/xlink" x="0px" y="0px"
	 width="30px" height="30px" viewBox="0 0 30 30" enable-background="new 0 0 30 30" xml:space="preserve">
<g>
	<path d="M28,2v26H2V2H28 M30,0H0v30h30V0L30,0z"/>
	<g>
		<g>
			<path d="M15.24,18.42c1.013,0.4,1.88,0.801,2.6,1.2s1.08,0.813,1.08,1.239V23.5H5v-3.52c0-0.24,0.06-0.44,0.18-0.601
				c0.12-0.159,0.273-0.3,0.46-0.42s0.373-0.226,0.561-0.319c0.187-0.094,0.359-0.167,0.52-0.221c0.986-0.4,1.667-0.8,2.04-1.199
				c0.373-0.4,0.561-0.961,0.561-1.681c0-0.213-0.034-0.373-0.101-0.48c-0.066-0.106-0.146-0.22-0.239-0.34
				c-0.094-0.12-0.188-0.28-0.28-0.48c-0.094-0.2-0.181-0.5-0.26-0.9c-0.027-0.16-0.08-0.26-0.16-0.3s-0.16-0.086-0.24-0.14
				c-0.08-0.053-0.153-0.146-0.22-0.28c-0.067-0.133-0.114-0.386-0.141-0.76c0-0.24,0.054-0.44,0.16-0.6
				C7.894,11.18,7.946,11.127,8,11.1c-0.027-0.16-0.054-0.333-0.08-0.52c-0.026-0.16-0.054-0.326-0.08-0.5
				C7.813,9.907,7.8,9.727,7.8,9.54c-0.026-0.213,0-0.493,0.08-0.84s0.233-0.68,0.46-1C8.566,7.38,8.887,7.1,9.3,6.86
				c0.413-0.24,0.967-0.36,1.66-0.36s1.253,0.12,1.68,0.36c0.427,0.24,0.754,0.52,0.98,0.84c0.227,0.32,0.38,0.653,0.46,1
				s0.106,0.626,0.08,0.84c-0.027,0.187-0.047,0.367-0.061,0.54c-0.014,0.174-0.033,0.34-0.06,0.5
				c-0.027,0.187-0.054,0.36-0.08,0.52c0.026,0.027,0.066,0.08,0.12,0.16c0.106,0.16,0.16,0.36,0.16,0.6
				c-0.027,0.374-0.074,0.627-0.141,0.76c-0.066,0.134-0.14,0.227-0.22,0.28c-0.08,0.054-0.153,0.1-0.22,0.14
				c-0.067,0.04-0.114,0.14-0.141,0.3c-0.079,0.4-0.166,0.7-0.26,0.9c-0.094,0.2-0.187,0.36-0.279,0.48
				c-0.094,0.12-0.174,0.233-0.24,0.34c-0.067,0.107-0.101,0.267-0.101,0.48c0,0.72,0.187,1.28,0.561,1.681
				C13.573,17.62,14.253,18.02,15.24,18.42z M20.52,23.5v-2.88c0-0.347-0.039-0.64-0.119-0.88s-0.247-0.473-0.5-0.7
				c-0.254-0.226-0.627-0.466-1.12-0.72c-0.494-0.254-1.141-0.58-1.94-0.98c0.561-0.4,0.84-0.946,0.84-1.64
				c0-0.16-0.026-0.28-0.08-0.36s-0.113-0.166-0.18-0.26c-0.066-0.093-0.14-0.213-0.22-0.36s-0.147-0.367-0.2-0.66
				c-0.027-0.106-0.066-0.173-0.12-0.2c-0.054-0.026-0.106-0.06-0.16-0.1c-0.054-0.04-0.106-0.113-0.16-0.22
				c-0.054-0.106-0.094-0.306-0.119-0.6c0-0.213,0.04-0.36,0.119-0.44c0.026-0.053,0.066-0.093,0.12-0.12
				c-0.026-0.133-0.054-0.266-0.08-0.4c-0.026-0.133-0.047-0.26-0.06-0.38c-0.014-0.12-0.021-0.247-0.021-0.38
				c0-0.16,0.026-0.367,0.08-0.62s0.167-0.506,0.341-0.76c0.173-0.253,0.413-0.466,0.72-0.64c0.306-0.173,0.727-0.26,1.26-0.26
				c0.506,0,0.92,0.087,1.24,0.26s0.566,0.387,0.74,0.64c0.173,0.254,0.286,0.507,0.34,0.76c0.053,0.253,0.08,0.46,0.08,0.62
				c-0.027,0.133-0.04,0.26-0.04,0.38s-0.014,0.247-0.04,0.38c-0.027,0.134-0.054,0.267-0.08,0.4c0.026,0.027,0.053,0.067,0.08,0.12
				c0.026,0.054,0.053,0.114,0.08,0.18c0.026,0.067,0.04,0.153,0.04,0.26c-0.027,0.294-0.067,0.494-0.12,0.6
				c-0.054,0.107-0.107,0.18-0.16,0.22c-0.054,0.04-0.107,0.074-0.16,0.1c-0.054,0.027-0.094,0.094-0.12,0.2
				c-0.054,0.293-0.113,0.514-0.18,0.66c-0.067,0.146-0.134,0.267-0.2,0.36c-0.066,0.094-0.127,0.18-0.18,0.26
				c-0.054,0.08-0.08,0.2-0.08,0.36c0,0.534,0.14,0.96,0.42,1.28c0.28,0.319,0.793,0.627,1.54,0.92
				c0.746,0.293,1.326,0.553,1.74,0.779c0.413,0.227,0.713,0.487,0.899,0.78c0.054,0.106,0.094,0.374,0.12,0.8
				c0.026,0.428,0.054,0.881,0.08,1.36C24.986,22.18,25,22.807,25,23.5H20.52z"/>
		</g>
	</g>
</g>
</svg>
